<?xml version="1.0" encoding="UTF-8" ?>
<!DOCTYPE svg PUBLIC "-//W3C//DTD SVG 1.1//EN" "http://www.w3.org/Graphics/SVG/1.1/DTD/svg11.dtd">
<svg width="644pt" height="449pt" viewBox="0 0 644 449" version="1.1" xmlns="http://www.w3.org/2000/svg">
<g id="#8c427eff">
<path fill="#8c427e" opacity="1.00" d=" M 314.75 43.50 C 322.67 43.49 330.58 43.50 338.50 43.50 C 338.49 92.65 338.52 141.79 338.49 190.94 C 350.70 191.99 363.09 190.12 375.20 192.31 C 294.99 192.16 214.78 192.31 134.57 192.23 C 142.09 160.39 158.00 130.40 181.04 107.08 C 206.02 81.26 238.37 63.49 272.35 52.54 C 280.68 49.92 289.16 47.81 297.75 46.26 C 297.75 91.42 297.74 136.58 297.75 181.75 C 256.44 181.74 215.13 181.75 173.82 181.74 C 182.74 152.31 202.19 125.68 229.00 110.19 C 229.01 126.38 228.99 142.57 229.00 158.75 C 244.57 158.75 260.15 158.74 275.72 158.76 C 276.60 130.31 276.44 101.84 277.30 73.39 C 243.83 82.03 213.30 101.81 191.97 129.03 C 177.50 146.97 166.86 167.89 160.37 189.99 C 192.24 190.22 224.10 190.52 255.97 190.49 C 275.56 191.08 295.16 190.45 314.75 191.01 C 314.75 141.84 314.75 92.67 314.75 43.50 Z" />
<path fill="#8c427e" opacity="1.00" d=" M 353.74 45.60 C 386.38 49.77 418.61 60.94 444.92 81.06 C 467.17 97.98 485.28 120.29 497.50 145.42 C 505.22 160.25 510.71 176.13 515.04 192.25 C 507.63 192.26 500.23 192.23 492.83 192.27 C 485.89 166.36 473.48 141.64 455.24 121.85 C 434.88 99.58 407.69 83.33 378.02 77.29 C 377.97 104.44 378.01 131.60 378.00 158.75 C 393.83 158.59 409.68 159.07 425.50 158.50 C 425.69 142.85 425.10 127.18 425.83 111.55 C 435.55 116.04 443.65 123.37 450.28 131.67 C 462.18 146.72 471.12 163.96 478.18 181.75 C 436.70 181.73 395.22 181.78 353.74 181.73 C 353.76 136.35 353.75 90.97 353.74 45.60 Z" />
<path fill="#8c427e" opacity="1.00" d=" M 174.74 202.27 C 177.49 202.25 180.24 202.25 182.99 202.25 C 183.00 207.02 183.00 211.79 183.00 216.56 C 190.60 215.69 198.34 214.76 205.96 215.90 C 209.22 216.40 210.81 219.97 210.74 222.96 C 210.80 230.47 210.71 237.98 210.75 245.50 C 208.00 245.50 205.25 245.50 202.50 245.50 C 202.48 237.79 202.54 230.08 202.46 222.38 C 196.29 220.65 189.78 221.84 183.46 221.51 C 182.65 229.48 183.07 237.50 183.30 245.50 C 180.45 245.50 177.60 245.50 174.75 245.50 C 174.74 231.09 174.76 216.68 174.74 202.27 Z" />
<path fill="#8c427e" opacity="1.00" d=" M 390.25 203.00 C 393.08 203.00 395.91 203.00 398.75 203.00 C 398.72 217.22 398.79 231.44 398.71 245.66 C 395.45 245.67 392.30 244.66 389.08 244.44 C 381.80 244.99 374.41 246.31 367.15 244.88 C 364.19 244.01 362.58 240.88 362.64 237.93 C 362.48 232.31 362.14 226.62 362.94 221.03 C 363.28 217.93 366.08 215.75 369.12 215.63 C 376.15 215.29 383.23 215.43 390.25 216.01 C 390.25 211.67 390.25 207.34 390.25 203.00 M 371.04 224.85 C 370.94 229.59 370.79 234.36 371.39 239.08 C 377.61 239.73 383.86 239.45 390.10 239.49 C 390.38 233.60 390.21 227.70 390.25 221.81 C 384.48 221.60 378.69 221.19 372.93 221.68 C 371.15 221.54 371.10 223.63 371.04 224.85 Z" />
<path fill="#8c427e" opacity="1.00" d=" M 508.50 203.00 C 511.24 203.00 514.00 203.00 516.75 203.00 C 516.74 207.35 516.74 211.71 516.75 216.06 C 523.47 215.50 530.23 215.33 536.98 215.55 C 539.58 215.65 542.79 216.42 543.72 219.21 C 545.16 223.99 544.26 229.07 544.53 233.98 C 544.60 237.71 544.64 242.72 540.67 244.55 C 534.63 246.31 528.22 245.29 522.05 245.01 C 517.52 244.41 513.03 245.35 508.53 245.64 C 508.46 231.43 508.52 217.21 508.50 203.00 M 517.00 221.80 C 516.57 227.59 516.79 233.40 516.75 239.20 C 522.99 239.19 529.62 240.49 535.64 238.63 C 536.51 233.13 536.51 227.46 535.68 221.95 C 529.49 220.72 523.23 221.79 517.00 221.80 Z" />
<path fill="#8c427e" opacity="1.00" d=" M 553.32 210.92 C 550.66 209.07 550.78 203.96 554.13 202.93 C 556.29 202.29 559.43 202.14 560.82 204.29 C 561.35 206.20 561.14 208.22 561.16 210.19 C 558.64 210.89 555.86 212.29 553.32 210.92 Z" />
<path fill="#8c427e" opacity="1.00" d=" M 569.12 203.00 C 572.07 203.00 575.03 203.00 578.00 203.00 C 578.00 217.17 578.00 231.33 578.00 245.50 C 575.25 245.50 572.50 245.50 569.75 245.50 C 569.55 231.33 570.26 217.14 569.12 203.00 Z" />
<path fill="#8c427e" opacity="1.00" d=" M 137.50 215.77 C 142.97 214.84 148.52 215.69 154.03 215.49 C 157.51 215.63 161.30 214.91 164.49 216.67 C 167.04 218.07 167.44 221.29 167.69 223.90 C 167.81 228.62 167.85 233.36 167.66 238.08 C 167.54 240.89 166.21 244.31 163.10 244.84 C 157.13 245.99 151.02 245.33 144.98 245.52 C 141.41 245.40 137.44 245.84 134.28 243.84 C 131.74 242.14 131.70 238.77 131.51 236.04 C 131.54 231.37 131.38 226.70 131.69 222.04 C 131.87 218.87 134.20 215.95 137.50 215.77 M 140.47 222.35 C 139.64 227.66 139.79 233.24 140.36 238.58 C 145.98 240.20 152.19 239.61 157.97 239.03 C 158.26 238.77 158.82 238.24 159.11 237.97 C 159.24 232.72 159.80 227.32 158.78 222.15 C 153.38 220.82 147.55 221.60 142.00 221.67 C 141.62 221.84 140.85 222.18 140.47 222.35 Z" />
<path fill="#8c427e" opacity="1.00" d=" M 326.75 215.88 C 332.75 214.73 338.87 215.74 344.93 215.49 C 348.60 215.50 353.56 215.55 355.36 219.45 C 356.71 224.18 355.95 229.16 355.96 234.00 C 347.13 234.06 338.31 234.03 329.49 233.50 C 329.79 235.38 330.13 237.27 330.53 239.13 C 338.45 239.89 346.40 239.23 354.31 238.71 C 355.28 240.49 356.26 242.26 357.23 244.04 C 348.95 246.00 340.41 245.45 331.98 245.50 C 328.87 245.35 325.12 245.45 322.97 242.81 C 321.31 240.22 321.43 236.99 321.42 234.04 C 321.57 230.04 321.33 226.04 321.61 222.06 C 321.73 219.17 323.78 216.29 326.75 215.88 M 329.58 227.97 C 335.67 228.04 341.76 227.98 347.84 228.00 C 347.76 225.88 347.69 223.77 347.56 221.66 C 342.08 221.53 336.55 221.19 331.09 221.75 C 329.32 223.29 329.93 225.90 329.58 227.97 Z" />
<path fill="#8c427e" opacity="1.00" d=" M 421.77 215.08 C 425.80 215.46 429.80 216.60 433.88 216.15 C 440.22 215.51 446.66 214.91 453.00 215.90 C 456.25 216.41 457.68 220.01 457.72 222.95 C 457.82 230.46 457.69 237.98 457.76 245.49 C 455.00 245.50 452.25 245.50 449.50 245.50 C 449.44 238.64 449.60 231.77 449.46 224.92 C 449.41 223.51 448.88 221.34 447.04 221.57 C 441.37 221.37 435.69 221.51 430.02 221.57 C 429.98 229.55 430.01 237.52 430.00 245.50 C 427.25 245.50 424.50 245.50 421.75 245.50 C 421.76 235.36 421.72 225.22 421.77 215.08 Z" />
<path fill="#8c427e" opacity="1.00" d=" M 71.46 215.43 C 80.92 216.85 90.80 213.70 99.98 216.90 C 106.52 215.48 113.32 214.76 119.96 215.89 C 123.21 216.40 124.81 219.96 124.74 222.96 C 124.80 230.47 124.72 237.99 124.74 245.51 C 121.99 245.50 119.25 245.50 116.50 245.50 C 116.48 237.81 116.54 230.12 116.47 222.43 C 111.99 220.83 107.22 221.40 102.58 221.60 C 102.00 229.55 102.36 237.51 102.41 245.47 C 99.61 245.50 96.81 245.50 94.01 245.51 C 93.84 238.02 94.31 230.50 93.79 223.03 C 93.59 222.71 93.19 222.08 92.99 221.76 C 88.68 221.20 84.33 221.60 80.00 221.51 C 80.00 229.51 80.00 237.50 80.00 245.50 C 77.17 245.50 74.33 245.50 71.50 245.50 C 71.47 235.48 71.55 225.45 71.46 215.43 Z" />
<path fill="#8c427e" opacity="1.00" d=" M 219.83 216.23 C 227.50 215.03 235.28 215.65 243.00 215.47 C 245.95 215.51 249.30 215.23 251.71 217.27 C 254.10 219.07 253.98 222.34 254.02 225.02 C 253.97 231.90 254.05 238.78 253.95 245.66 C 250.95 245.58 248.01 244.97 245.07 244.47 C 237.57 244.75 229.92 246.57 222.49 244.69 C 214.94 242.24 215.70 229.29 223.50 227.76 C 230.93 226.66 238.45 227.70 245.90 228.07 C 245.74 225.98 245.77 223.83 245.06 221.83 C 236.90 221.07 228.64 221.54 220.46 222.04 C 220.25 220.10 220.04 218.17 219.83 216.23 M 226.84 239.32 C 233.12 239.77 239.44 239.38 245.73 239.48 C 245.74 237.23 245.75 234.99 245.76 232.75 C 239.36 232.75 232.97 232.75 226.57 232.75 C 225.54 234.86 225.21 237.38 226.84 239.32 Z" />
<path fill="#8c427e" opacity="1.00" d=" M 261.48 215.50 C 267.94 216.16 274.42 215.40 280.89 215.33 C 284.68 215.13 288.29 217.26 292.06 216.46 C 297.93 215.34 304.04 214.93 309.95 215.96 C 313.06 216.72 314.72 219.94 314.71 222.95 C 314.84 230.47 314.70 237.98 314.74 245.50 C 311.92 245.50 309.10 245.50 306.27 245.52 C 306.15 237.65 306.44 229.78 306.09 221.92 C 301.50 221.29 296.83 221.03 292.25 221.90 C 292.24 229.76 292.25 237.63 292.25 245.50 C 289.50 245.50 286.75 245.50 284.00 245.50 C 283.70 237.54 284.71 229.48 283.29 221.60 C 278.87 221.45 274.43 221.46 270.01 221.57 C 269.49 229.54 269.85 237.52 269.75 245.50 C 267.00 245.50 264.25 245.50 261.50 245.50 C 261.48 235.50 261.53 225.50 261.48 215.50 Z" />
<path fill="#8c427e" opacity="1.00" d=" M 466.71 216.32 C 475.08 214.94 483.58 215.68 492.01 215.48 C 495.32 215.27 499.58 216.43 500.50 220.06 C 501.84 228.54 500.51 237.13 501.20 245.65 C 498.12 245.61 495.11 245.01 492.11 244.45 C 484.59 244.74 476.93 246.57 469.48 244.66 C 462.20 242.45 462.51 229.89 469.82 227.98 C 477.45 226.46 485.22 227.75 492.90 228.08 C 492.73 225.98 492.76 223.83 492.07 221.82 C 483.91 221.05 475.67 221.60 467.49 222.00 C 467.21 220.11 466.95 218.22 466.71 216.32 M 474.03 239.09 C 480.15 239.90 486.37 239.48 492.52 239.20 C 492.65 237.05 492.74 234.90 492.82 232.76 C 486.41 232.74 480.00 232.75 473.59 232.75 C 472.74 234.76 471.65 237.66 474.03 239.09 Z" />
<path fill="#8c427e" opacity="1.00" d=" M 552.25 245.50 C 552.27 235.49 552.22 225.49 552.28 215.48 C 555.01 215.49 557.75 215.50 560.50 215.51 C 560.50 225.50 560.50 235.50 560.50 245.50 C 557.74 245.50 554.99 245.50 552.25 245.50 Z" />
<path fill="#8c427e" opacity="1.00" d=" M 119.25 255.49 C 120.51 255.49 121.76 255.50 123.02 255.50 C 122.87 259.03 122.29 262.93 124.78 265.84 C 124.35 266.10 123.48 266.63 123.05 266.89 C 123.02 268.51 123.00 270.14 122.97 271.76 C 121.73 271.75 120.49 271.74 119.25 271.74 C 119.26 266.32 119.25 260.91 119.25 255.49 Z" />
<path fill="#8c427e" opacity="1.00" d=" M 295.50 255.49 C 296.74 255.49 298.00 255.50 299.25 255.51 C 299.25 256.75 299.25 258.00 299.25 259.26 C 300.67 259.25 302.08 259.25 303.51 259.25 C 303.49 259.93 303.45 261.29 303.42 261.97 C 302.03 261.98 300.63 262.00 299.24 262.01 C 299.25 264.17 299.25 266.33 299.25 268.49 C 300.67 268.50 302.10 268.52 303.53 268.55 C 303.40 269.31 303.13 270.83 303.00 271.59 C 300.51 271.86 298.00 271.74 295.50 271.77 C 295.50 266.34 295.50 260.92 295.50 255.49 Z" />
<path fill="#8c427e" opacity="1.00" d=" M 338.08 255.42 C 339.31 255.48 340.55 255.55 341.79 255.62 C 341.66 256.50 341.53 257.38 341.41 258.26 C 340.54 258.26 338.82 258.24 337.95 258.24 C 337.99 257.53 338.05 256.12 338.08 255.42 Z" />
<path fill="#8c427e" opacity="1.00" d=" M 534.74 255.48 C 536.06 255.50 537.39 255.53 538.74 255.57 C 538.63 256.47 538.53 257.36 538.43 258.26 C 537.51 258.26 535.68 258.25 534.76 258.24 C 534.75 257.55 534.74 256.17 534.74 255.48 Z" />
<path fill="#8c427e" opacity="1.00" d=" M 342.97 261.76 C 345.29 260.05 347.72 258.46 350.22 257.00 C 350.16 261.97 350.29 266.93 350.24 271.90 C 348.97 271.23 347.72 270.58 346.47 269.92 C 346.49 267.31 346.50 264.71 346.53 262.11 C 345.64 262.02 343.86 261.85 342.97 261.76 Z" />
<path fill="#8c427e" opacity="1.00" d=" M 71.76 258.80 C 73.14 259.20 74.53 259.60 75.90 260.03 C 76.87 259.77 78.80 259.26 79.76 259.00 C 79.76 259.75 79.74 261.25 79.74 262.00 C 78.24 262.00 76.74 262.00 75.25 262.00 C 75.25 265.25 75.25 268.50 75.25 271.74 C 74.38 271.75 72.63 271.75 71.75 271.75 C 71.75 267.43 71.74 263.11 71.76 258.80 Z" />
<path fill="#8c427e" opacity="1.00" d=" M 84.74 260.58 C 86.16 260.00 87.57 259.42 88.99 258.84 C 90.16 259.61 91.34 260.38 92.51 261.16 C 92.50 264.69 92.50 268.21 92.50 271.74 C 91.56 271.75 89.69 271.75 88.75 271.75 C 88.75 268.49 88.75 265.24 88.75 261.99 C 87.33 261.99 85.91 262.00 84.49 262.02 C 84.50 265.26 84.50 268.50 84.50 271.74 C 83.50 271.75 81.50 271.75 80.50 271.75 C 80.50 267.53 80.49 263.32 80.52 259.12 C 81.92 259.60 83.33 260.09 84.74 260.58 Z" />
<path fill="#8c427e" opacity="1.00" d=" M 95.83 263.36 C 97.10 261.81 98.46 260.34 99.91 258.96 C 101.60 258.98 103.29 259.00 104.99 259.01 C 105.00 259.71 105.01 261.11 105.02 261.80 C 101.97 262.42 98.94 263.16 95.83 263.36 Z" />
<path fill="#8c427e" opacity="1.00" d=" M 106.09 258.79 C 108.78 259.08 111.47 259.58 114.02 260.53 C 113.99 264.27 114.00 268.01 114.00 271.75 C 111.41 271.74 108.83 271.74 106.25 271.75 C 106.25 270.69 106.25 269.64 106.25 268.60 C 107.92 268.48 109.59 268.34 111.26 268.18 C 109.90 266.57 107.70 266.72 106.01 265.82 C 105.08 263.19 108.83 264.33 110.28 263.80 C 110.27 263.35 110.26 262.45 110.25 262.00 C 108.79 262.00 107.33 262.00 105.87 262.00 C 105.93 261.20 106.03 259.59 106.09 258.79 Z" />
<path fill="#8c427e" opacity="1.00" d=" M 125.07 266.01 C 126.81 262.59 130.35 260.96 133.46 259.05 C 134.00 259.58 135.06 260.63 135.59 261.16 C 133.51 262.47 131.41 263.77 129.31 265.06 C 131.65 266.59 134.00 268.11 136.35 269.63 C 135.23 270.40 134.11 271.16 132.99 271.92 C 130.35 269.95 127.70 267.98 125.07 266.01 Z" />
<path fill="#8c427e" opacity="1.00" d=" M 140.14 259.93 C 142.14 258.84 144.51 259.08 146.70 258.84 C 146.74 259.55 146.81 260.97 146.85 261.68 C 144.96 261.94 143.06 262.24 141.36 263.13 C 142.74 264.10 145.70 262.97 146.26 265.01 C 145.43 266.93 142.86 266.97 141.31 268.14 C 143.14 268.34 144.97 268.51 146.81 268.65 C 146.77 269.55 146.68 271.35 146.63 272.25 C 143.96 271.88 141.33 271.34 138.81 270.37 C 139.00 266.94 137.35 262.66 140.14 259.93 Z" />
<path fill="#8c427e" opacity="1.00" d=" M 147.76 258.80 C 150.40 259.10 153.19 259.15 155.58 260.47 C 156.15 261.82 155.96 263.36 156.15 264.80 C 153.21 265.83 148.52 268.60 147.15 264.20 C 148.79 264.08 150.44 263.99 152.09 263.92 C 152.06 263.44 152.00 262.48 151.98 262.00 C 150.56 262.00 149.15 262.00 147.75 262.00 C 147.75 261.20 147.76 259.60 147.76 258.80 Z" />
<path fill="#8c427e" opacity="1.00" d=" M 168.94 259.32 C 170.21 259.21 171.48 259.09 172.76 258.98 C 172.75 261.88 172.74 264.78 172.74 267.69 C 174.44 267.74 176.14 267.81 177.84 267.91 C 176.42 271.57 170.92 270.78 169.16 267.85 C 168.29 265.10 168.94 262.15 168.94 259.32 Z" />
<path fill="#8c427e" opacity="1.00" d=" M 182.03 259.25 C 183.35 259.14 184.67 259.03 186.00 258.93 C 185.98 264.59 186.07 270.26 185.92 275.93 C 183.34 276.62 180.69 277.01 178.02 277.17 C 178.01 276.38 178.00 274.79 177.99 274.00 C 179.33 274.00 180.66 274.00 182.00 274.00 C 182.00 272.74 182.00 271.49 182.00 270.25 C 180.66 270.24 179.32 270.25 177.99 270.25 C 177.99 269.63 177.97 268.40 177.96 267.78 C 179.29 267.75 180.63 267.71 181.96 267.67 C 182.00 264.86 182.00 262.06 182.03 259.25 Z" />
<path fill="#8c427e" opacity="1.00" d=" M 188.53 260.46 C 191.11 259.63 193.78 259.11 196.47 258.75 C 196.48 259.56 196.50 261.18 196.52 261.99 C 195.08 261.99 193.65 262.01 192.22 262.02 C 192.24 264.13 192.26 266.25 192.31 268.37 C 193.72 268.43 195.14 268.49 196.55 268.56 C 196.51 269.42 196.42 271.16 196.38 272.02 C 193.71 271.74 191.07 271.24 188.52 270.41 C 188.49 267.09 188.49 263.78 188.53 260.46 Z" />
<path fill="#8c427e" opacity="1.00" d=" M 197.30 258.74 C 200.02 259.07 202.71 259.66 205.25 260.72 C 205.25 263.89 205.25 267.07 205.25 270.25 C 202.71 271.21 200.05 271.77 197.34 271.97 C 197.30 270.81 197.27 269.65 197.24 268.50 C 198.66 268.49 200.08 268.50 201.50 268.50 C 201.50 266.33 201.50 264.16 201.50 262.00 C 200.43 262.00 198.30 262.00 197.23 262.00 C 197.25 261.18 197.29 259.55 197.30 258.74 Z" />
<path fill="#8c427e" opacity="1.00" d=" M 223.00 259.33 C 223.94 259.24 225.81 259.06 226.75 258.97 C 226.75 263.26 226.70 267.55 226.83 271.84 C 224.13 271.44 221.41 271.23 218.69 271.37 C 218.71 270.66 218.76 269.22 218.78 268.50 C 220.19 268.50 221.59 268.50 223.00 268.50 C 223.00 265.44 223.00 262.39 223.00 259.33 Z" />
<path fill="#8c427e" opacity="1.00" d=" M 232.02 258.78 C 233.68 259.14 235.34 259.53 236.99 259.98 C 237.99 259.72 238.99 259.47 240.00 259.21 C 240.00 259.91 240.00 261.30 240.00 262.00 C 238.66 262.00 237.33 262.00 236.00 262.00 C 235.77 265.24 235.72 268.50 235.72 271.75 C 234.48 271.75 233.24 271.75 232.00 271.75 C 232.00 267.42 231.99 263.10 232.02 258.78 Z" />
<path fill="#8c427e" opacity="1.00" d=" M 241.12 258.92 C 243.03 259.86 245.16 260.78 245.55 263.17 C 244.01 263.22 242.48 263.25 240.96 263.27 C 241.00 261.82 241.06 260.37 241.12 258.92 Z" />
<path fill="#8c427e" opacity="1.00" d=" M 254.17 260.10 C 255.29 259.71 256.42 259.31 257.56 258.92 C 258.37 261.56 259.15 264.21 259.91 266.87 C 261.00 265.91 262.09 264.95 263.19 264.00 C 263.25 265.68 263.33 267.36 263.42 269.05 C 261.73 270.43 259.91 271.64 257.92 272.55 C 256.30 268.51 255.33 264.28 254.17 260.10 Z" />
<path fill="#8c427e" opacity="1.00" d=" M 269.61 259.09 C 270.87 259.43 272.14 259.78 273.42 260.13 C 272.36 264.19 271.39 268.28 270.39 272.37 C 268.09 271.77 265.99 270.67 264.21 269.09 C 264.23 267.36 264.25 265.63 264.27 263.90 C 265.37 264.99 266.48 266.08 267.60 267.18 C 268.26 264.48 268.93 261.78 269.61 259.09 Z" />
<path fill="#8c427e" opacity="1.00" d=" M 275.74 260.65 C 278.26 259.55 280.94 258.91 283.69 258.77 C 283.72 259.51 283.80 260.98 283.84 261.72 C 282.06 261.99 280.18 262.04 278.60 262.99 C 279.91 263.69 281.40 263.86 282.83 264.21 C 283.08 264.49 283.58 265.06 283.84 265.34 C 281.97 266.24 280.06 267.03 278.31 268.14 C 280.14 268.34 281.97 268.51 283.81 268.64 C 283.77 269.55 283.67 271.36 283.63 272.27 C 280.93 271.91 278.27 271.33 275.75 270.29 C 275.75 267.08 275.75 263.86 275.74 260.65 Z" />
<path fill="#8c427e" opacity="1.00" d=" M 284.77 258.77 C 287.59 259.00 290.39 259.56 293.05 260.56 C 293.00 261.99 292.95 263.43 292.90 264.87 C 290.44 265.85 285.41 268.63 284.87 264.27 C 286.27 264.12 287.68 263.97 289.09 263.84 C 289.06 263.38 289.00 262.46 288.97 262.00 C 287.56 262.00 286.15 262.00 284.74 262.00 C 284.75 261.19 284.76 259.57 284.77 258.77 Z" />
<path fill="#8c427e" opacity="1.00" d=" M 303.50 261.70 C 305.05 257.58 309.78 258.98 312.48 260.99 C 312.50 264.06 312.50 267.13 312.46 270.20 C 309.95 271.33 307.26 271.94 304.53 272.27 C 304.52 271.33 304.50 269.44 304.49 268.50 C 305.90 268.50 307.32 268.50 308.75 268.50 C 308.75 266.36 308.75 264.23 308.77 262.09 C 307.01 261.98 305.25 261.85 303.50 261.70 Z" />
<path fill="#8c427e" opacity="1.00" d=" M 316.74 260.50 C 319.33 259.66 321.99 259.11 324.69 258.74 C 324.72 259.53 324.76 261.10 324.79 261.89 C 323.53 262.00 321.02 262.23 319.77 262.35 C 320.89 264.34 323.31 263.95 325.21 264.43 C 324.96 265.02 324.44 266.20 324.18 266.79 C 321.62 266.79 319.18 265.98 316.80 265.16 C 316.77 263.61 316.75 262.05 316.74 260.50 Z" />
<path fill="#8c427e" opacity="1.00" d=" M 338.00 259.34 C 339.24 259.21 340.49 259.08 341.75 258.95 C 341.75 263.22 341.75 267.48 341.75 271.75 C 340.81 271.75 338.93 271.75 338.00 271.74 C 338.00 267.61 338.00 263.48 338.00 259.34 Z" />
<path fill="#8c427e" opacity="1.00" d=" M 350.47 262.01 C 350.88 259.22 353.47 258.97 355.77 258.72 C 355.73 259.53 355.66 261.14 355.62 261.95 C 353.90 261.97 352.18 261.99 350.47 262.01 Z" />
<path fill="#8c427e" opacity="1.00" d=" M 361.98 260.74 C 364.48 259.59 367.16 258.95 369.91 258.78 C 369.97 259.59 370.08 261.20 370.14 262.00 C 368.76 262.00 367.38 262.00 366.00 262.00 C 366.00 262.44 366.00 263.31 366.00 263.74 C 367.17 264.34 371.55 263.59 369.82 265.82 C 368.56 266.24 367.29 266.58 366.00 266.83 C 366.00 267.25 366.00 268.08 366.00 268.50 C 367.33 268.50 368.67 268.50 370.01 268.50 C 370.00 269.44 369.97 271.31 369.96 272.25 C 367.22 271.89 364.56 271.17 362.03 270.07 C 362.00 266.96 362.00 263.85 361.98 260.74 Z" />
<path fill="#8c427e" opacity="1.00" d=" M 371.26 258.86 C 374.17 258.74 377.00 259.32 379.40 261.02 C 379.42 262.34 379.35 263.65 379.20 264.97 C 377.06 265.74 373.93 267.52 372.02 265.98 C 371.79 265.52 371.33 264.61 371.10 264.16 C 372.20 264.10 374.41 263.98 375.52 263.92 C 375.51 263.44 375.51 262.49 375.51 262.01 C 374.08 262.00 372.66 261.99 371.24 261.99 C 371.25 261.21 371.26 259.64 371.26 258.86 Z" />
<path fill="#8c427e" opacity="1.00" d=" M 392.49 259.02 C 395.88 259.79 399.36 259.67 402.81 259.93 L 402.55 259.43 C 403.53 259.90 404.52 260.37 405.51 260.83 C 405.50 261.68 405.49 262.52 405.49 263.37 C 404.30 263.25 403.11 263.13 401.94 263.00 C 400.32 261.67 398.18 261.93 396.25 261.88 C 396.25 265.17 396.25 268.46 396.25 271.75 C 395.31 271.75 393.44 271.74 392.50 271.74 C 392.50 267.50 392.50 263.26 392.49 259.02 Z" />
<path fill="#8c427e" opacity="1.00" d=" M 407.76 260.52 C 410.29 259.54 412.96 258.94 415.68 258.77 C 415.72 259.50 415.80 260.96 415.84 261.69 C 413.97 261.93 412.10 262.22 410.44 263.16 C 412.44 263.87 414.80 263.84 416.49 265.30 C 414.34 266.04 412.15 266.74 410.34 268.16 C 412.15 268.36 413.98 268.51 415.81 268.63 C 415.77 269.54 415.68 271.35 415.63 272.25 C 412.94 271.88 410.29 271.33 407.75 270.35 C 407.74 267.07 407.74 263.80 407.76 260.52 Z" />
<path fill="#8c427e" opacity="1.00" d=" M 416.76 258.79 C 419.49 259.15 422.54 259.09 424.85 260.82 C 424.98 262.14 425.07 263.46 425.13 264.80 C 422.07 266.09 417.88 268.15 415.77 264.27 C 417.54 264.12 419.31 264.00 421.09 263.91 C 421.06 263.43 421.00 262.48 420.97 262.00 C 419.56 262.00 418.15 262.00 416.75 262.00 C 416.75 261.20 416.76 259.59 416.76 258.79 Z" />
<path fill="#8c427e" opacity="1.00" d=" M 430.38 260.49 C 432.33 259.00 434.93 259.14 437.23 258.78 C 437.24 259.58 437.25 261.19 437.26 262.00 C 435.83 262.00 434.41 262.00 433.00 262.00 C 433.00 262.48 433.00 263.45 433.00 263.93 C 434.70 264.00 436.39 264.10 438.10 264.22 C 436.28 268.53 431.83 266.02 428.69 264.92 C 429.16 263.44 428.97 261.49 430.38 260.49 Z" />
<path fill="#8c427e" opacity="1.00" d=" M 438.33 258.79 C 441.72 258.91 445.59 259.50 446.87 263.14 C 445.61 263.67 444.36 264.20 443.14 264.79 C 446.50 264.71 446.37 267.49 446.37 269.96 C 443.94 271.51 441.15 271.95 438.33 271.91 C 438.31 271.06 438.26 269.35 438.23 268.50 C 439.65 268.50 441.07 268.49 442.50 268.50 C 442.51 268.00 442.51 267.01 442.51 266.51 C 441.11 266.50 439.72 266.49 438.34 266.48 C 438.30 265.88 438.22 264.67 438.18 264.07 C 439.12 263.35 442.60 265.27 442.74 263.28 C 441.88 261.63 439.57 262.25 438.12 261.65 C 438.18 260.93 438.28 259.50 438.33 258.79 Z" />
<path fill="#8c427e" opacity="1.00" d=" M 451.00 259.25 C 453.66 259.25 456.33 259.25 459.00 259.25 C 459.00 259.94 459.00 261.31 459.00 262.00 C 457.68 262.00 456.36 262.00 455.05 262.00 C 454.91 263.78 454.77 265.56 454.65 267.35 C 456.44 267.48 458.23 267.63 460.01 267.85 C 458.78 269.50 456.92 270.12 454.99 270.46 C 454.83 272.64 454.74 274.82 454.68 277.00 C 453.45 277.00 452.22 277.00 451.00 277.00 C 451.00 271.08 451.00 265.17 451.00 259.25 Z" />
<path fill="#8c427e" opacity="1.00" d=" M 460.03 258.79 C 462.75 259.07 465.46 259.58 468.03 260.54 C 468.01 263.31 467.99 266.09 467.89 268.86 C 465.41 269.56 462.89 270.09 460.35 270.48 C 460.29 269.48 460.25 268.50 460.21 267.51 C 461.55 267.50 462.90 267.49 464.25 267.49 C 464.25 265.66 464.25 263.83 464.25 262.00 C 462.83 262.00 461.40 262.00 459.99 262.00 C 460.00 261.20 460.02 259.59 460.03 258.79 Z" />
<path fill="#8c427e" opacity="1.00" d=" M 470.51 260.68 C 473.04 259.61 475.73 259.03 478.47 258.74 C 478.48 259.56 478.50 261.18 478.52 261.99 C 477.09 261.99 475.66 262.00 474.24 262.01 C 474.24 264.17 474.25 266.33 474.25 268.50 C 475.67 268.50 477.09 268.50 478.53 268.50 C 478.50 269.38 478.44 271.13 478.42 272.00 C 475.73 271.73 473.09 271.22 470.52 270.40 C 470.49 267.16 470.49 263.92 470.51 260.68 Z" />
<path fill="#8c427e" opacity="1.00" d=" M 479.31 258.74 C 482.01 259.08 484.69 259.67 487.24 260.65 C 487.25 263.85 487.25 267.05 487.25 270.26 C 484.71 271.21 482.04 271.76 479.34 271.97 C 479.30 270.81 479.26 269.65 479.24 268.50 C 480.65 268.50 482.07 268.50 483.50 268.50 C 483.49 266.33 483.49 264.17 483.50 262.00 C 482.43 262.00 480.30 262.00 479.23 261.99 C 479.25 261.18 479.29 259.55 479.31 258.74 Z" />
<path fill="#8c427e" opacity="1.00" d=" M 492.00 259.01 C 494.65 259.41 497.32 259.70 500.01 259.70 C 500.00 260.28 500.00 261.43 499.99 262.00 C 498.65 262.00 497.32 262.00 495.99 262.00 C 495.75 265.24 495.71 268.50 495.73 271.75 C 494.48 271.75 493.24 271.75 492.00 271.75 C 492.00 267.50 492.00 263.25 492.00 259.01 Z" />
<path fill="#8c427e" opacity="1.00" d=" M 501.03 258.79 C 503.74 259.07 506.44 259.57 509.01 260.52 C 508.99 264.28 509.00 268.03 508.98 271.79 C 507.74 271.75 506.51 271.70 505.29 271.66 C 505.24 268.44 505.25 265.22 505.25 262.00 C 503.82 262.00 502.40 262.00 500.99 262.00 C 501.00 261.20 501.02 259.59 501.03 258.79 Z" />
<path fill="#8c427e" opacity="1.00" d=" M 516.33 259.24 C 518.30 259.05 520.29 259.37 522.26 259.58 C 523.83 259.30 525.42 258.92 527.05 259.02 C 529.23 259.71 530.38 261.85 531.58 263.62 C 528.26 262.99 524.98 262.17 521.67 261.50 C 519.87 261.98 518.07 262.44 516.31 263.00 C 518.46 264.00 521.94 263.56 522.10 266.75 C 519.15 266.60 515.80 266.69 513.42 264.65 C 512.74 262.47 514.42 260.19 516.33 259.24 Z" />
<path fill="#8c427e" opacity="1.00" d=" M 534.75 259.25 C 535.99 259.25 537.25 259.25 538.51 259.26 C 538.50 263.41 538.49 267.57 538.51 271.72 C 537.25 271.74 536.00 271.75 534.76 271.77 C 534.74 267.60 534.75 263.43 534.75 259.25 Z" />
<path fill="#8c427e" opacity="1.00" d=" M 554.99 259.15 C 556.21 259.53 557.45 259.92 558.69 260.31 C 555.97 264.52 553.93 269.21 550.37 272.83 C 549.34 267.69 552.04 263.06 554.99 259.15 Z" />
<path fill="#8c427e" opacity="1.00" d=" M 560.75 260.69 C 563.54 259.33 566.61 258.82 569.71 258.88 C 569.10 261.96 565.86 262.26 563.52 263.42 C 565.36 263.77 567.22 263.99 569.10 264.20 C 568.97 264.79 568.71 265.96 568.57 266.54 C 567.21 266.52 565.86 266.50 564.51 266.48 L 564.50 268.50 C 565.91 268.50 567.33 268.50 568.76 268.50 C 568.74 269.74 568.73 270.98 568.72 272.23 C 565.98 271.87 563.27 271.31 560.77 270.12 C 560.75 266.97 560.74 263.83 560.75 260.69 Z" />
<path fill="#8c427e" opacity="1.00" d=" M 570.02 258.80 C 572.76 258.98 575.48 259.52 578.04 260.55 C 578.00 262.08 577.97 263.62 577.94 265.16 C 575.41 266.03 572.78 266.53 570.12 266.71 C 570.08 266.03 570.01 264.68 569.98 264.00 C 571.40 264.00 572.82 264.00 574.25 264.00 C 574.25 263.50 574.25 262.50 574.25 262.00 C 572.81 262.00 571.38 262.00 569.96 262.00 C 569.97 261.20 570.01 259.60 570.02 258.80 Z" />
<path fill="#8c427e" opacity="1.00" d=" M 209.75 259.26 C 210.69 259.26 212.56 259.25 213.50 259.25 C 213.50 262.33 213.50 265.41 213.50 268.50 C 214.93 268.50 216.36 268.50 217.79 268.51 C 217.75 269.45 217.68 271.32 217.64 272.25 C 214.95 271.89 212.29 271.33 209.75 270.35 C 209.75 266.65 209.75 262.95 209.75 259.26 Z" />
<path fill="#8c427e" opacity="1.00" d=" M 325.77 259.19 C 329.01 258.78 332.41 259.23 334.23 262.28 C 334.06 262.54 333.71 263.05 333.53 263.31 C 330.88 263.04 328.33 262.20 325.71 261.74 C 325.73 261.11 325.75 259.83 325.77 259.19 Z" />
<path fill="#8c427e" opacity="1.00" d=" M 540.71 260.03 C 541.66 259.87 543.57 259.53 544.52 259.36 C 548.02 262.92 550.36 267.71 549.22 272.80 C 545.84 268.92 543.38 264.40 540.71 260.03 Z" />
<path fill="#8c427e" opacity="1.00" d=" M 96.46 269.97 C 96.76 267.41 97.75 264.15 100.85 264.02 C 102.15 264.12 106.47 263.39 104.78 265.76 C 103.11 266.56 101.36 267.19 99.72 268.06 C 101.48 268.32 103.24 268.49 105.01 268.65 C 105.00 269.54 104.98 271.32 104.97 272.21 C 102.02 271.94 99.15 271.21 96.46 269.97 Z" />
<path fill="#8c427e" opacity="1.00" d=" M 325.30 263.82 C 328.23 263.87 331.14 264.41 333.76 265.77 C 333.75 267.22 333.75 268.67 333.75 270.13 C 331.22 271.29 328.52 271.93 325.77 272.25 C 325.76 271.31 325.75 269.43 325.75 268.49 C 327.14 268.50 328.53 268.51 329.93 268.53 C 329.96 268.06 330.00 267.13 330.03 266.67 C 327.84 266.62 325.38 266.73 325.30 263.82 Z" />
<path fill="#8c427e" opacity="1.00" d=" M 522.77 263.76 C 525.43 263.98 528.06 264.51 530.55 265.51 C 530.53 267.05 530.50 268.59 530.48 270.14 C 528.01 271.52 525.23 271.92 522.44 271.94 C 522.46 271.07 522.52 269.35 522.54 268.49 C 524.03 268.49 525.51 268.50 527.01 268.50 C 527.00 268.00 526.99 267.00 526.98 266.50 C 525.57 266.50 524.15 266.50 522.75 266.50 C 522.75 265.82 522.76 264.45 522.77 263.76 Z" />
<path fill="#8c427e" opacity="1.00" d=" M 315.85 267.40 C 318.82 267.72 321.76 268.28 324.71 268.77 C 324.70 269.89 324.70 271.02 324.69 272.14 C 321.09 272.11 316.94 271.42 315.85 267.40 Z" />
<path fill="#8c427e" opacity="1.00" d=" M 356.36 267.13 C 357.62 267.27 358.88 267.43 360.14 267.59 C 358.77 271.34 354.88 272.24 351.28 272.21 C 351.27 271.27 351.26 269.41 351.25 268.48 C 352.11 268.50 353.83 268.52 354.69 268.54 C 355.11 268.19 355.95 267.48 356.36 267.13 Z" />
<path fill="#8c427e" opacity="1.00" d=" M 416.74 268.81 C 419.77 268.27 422.79 267.66 425.87 267.43 C 424.64 271.51 420.36 271.97 416.77 272.20 C 416.76 271.35 416.75 269.66 416.74 268.81 Z" />
<path fill="#8c427e" opacity="1.00" d=" M 569.96 268.78 C 572.89 268.25 575.81 267.68 578.78 267.34 C 578.01 268.66 577.67 270.49 576.11 271.11 C 574.19 271.83 572.09 271.83 570.09 272.15 C 570.06 271.30 569.99 269.62 569.96 268.78 Z" />
<path fill="#8c427e" opacity="1.00" d=" M 147.75 268.81 C 150.76 268.24 153.78 267.68 156.84 267.36 C 155.71 271.53 151.36 271.96 147.76 272.20 C 147.76 271.35 147.75 269.66 147.75 268.81 Z" />
<path fill="#8c427e" opacity="1.00" d=" M 284.73 268.76 C 287.76 268.24 290.80 267.70 293.87 267.42 C 292.64 271.48 288.45 272.08 284.83 272.20 C 284.80 271.34 284.75 269.62 284.73 268.76 Z" />
<path fill="#8c427e" opacity="1.00" d=" M 370.90 268.86 C 373.97 268.29 377.04 267.70 380.15 267.43 C 378.95 271.38 374.97 272.12 371.39 272.16 C 371.27 271.33 371.02 269.68 370.90 268.86 Z" />
<path fill="#8c427e" opacity="1.00" d=" M 428.38 267.42 C 431.35 267.68 434.28 268.36 437.25 268.71 C 437.25 269.52 437.26 271.13 437.27 271.94 C 433.67 272.09 429.48 271.52 428.38 267.42 Z" />
<path fill="#8c427e" opacity="1.00" d=" M 512.58 267.35 C 515.57 267.67 518.54 268.20 521.50 268.75 C 521.50 269.62 521.49 271.36 521.48 272.22 C 517.87 272.08 513.82 271.33 512.58 267.35 Z" />
<path fill="#8c427e" opacity="1.00" d=" M 167.96 272.59 C 170.03 272.76 172.10 273.10 174.07 273.81 C 174.75 273.89 176.11 274.04 176.79 274.12 C 176.77 274.87 176.74 276.38 176.73 277.13 C 174.49 276.92 172.07 277.23 170.05 276.06 C 169.06 275.10 168.62 273.76 167.96 272.59 Z" />
<path fill="#8c427e" opacity="1.00" d=" M 134.39 287.26 C 261.46 287.25 388.54 287.24 515.62 287.27 C 507.13 323.44 489.73 357.90 463.60 384.55 C 439.67 408.69 408.38 425.08 375.23 432.26 C 368.23 433.88 361.12 434.97 354.00 435.95 C 353.99 390.55 354.00 345.15 354.00 299.75 C 395.54 299.76 437.07 299.74 478.61 299.76 C 472.18 315.73 464.32 331.21 454.23 345.19 C 446.81 355.39 437.64 364.72 426.07 370.11 C 425.91 354.40 426.05 338.70 426.00 323.00 C 410.17 323.00 394.33 323.00 378.50 323.00 C 378.50 350.10 378.50 377.21 378.51 404.31 C 412.11 397.44 442.40 377.43 463.40 350.50 C 477.50 332.54 487.03 311.35 493.24 289.47 C 479.84 289.92 466.44 289.70 453.04 289.74 C 435.03 290.38 416.99 289.62 398.98 290.25 C 378.82 290.05 358.66 290.61 338.50 290.50 C 338.50 338.92 338.50 387.33 338.50 435.75 C 330.59 435.75 322.67 435.74 314.75 435.75 C 314.75 387.42 314.75 339.08 314.75 290.75 C 289.15 290.57 263.56 291.17 237.96 291.00 C 221.64 291.63 205.31 290.87 189.00 291.50 C 179.55 291.52 170.10 291.49 160.66 291.51 C 170.36 324.80 189.87 355.26 216.67 377.36 C 234.37 391.97 255.42 402.30 277.55 408.23 C 277.01 379.82 276.56 351.41 276.25 323.00 C 260.58 323.00 244.92 323.00 229.25 323.00 C 229.24 339.15 229.27 355.30 229.23 371.45 C 202.50 355.79 183.08 329.20 174.06 299.77 C 215.37 299.72 256.69 299.76 298.00 299.75 C 298.00 344.95 298.00 390.14 298.00 435.34 C 272.99 430.79 248.97 421.49 226.78 409.16 C 198.81 393.39 174.08 371.21 157.30 343.68 C 146.49 326.37 139.01 307.11 134.39 287.26 Z" />
</g>
</svg>
